<svg width="817" height="115" viewBox="0 0 817 115" fill="none" xmlns="http://www.w3.org/2000/svg">
<path d="M760.701 90.9673V25.9224H769.651L807.386 74.7291H804.987V25.9224H816.059V90.9673H807.109L769.466 42.1605H771.773V90.9673H760.701Z" fill="#1E40AF"/>
<path d="M685.959 58.3989C685.959 51.5715 687.189 45.6668 689.649 40.6846C692.171 35.7024 695.769 31.8582 700.444 29.1518C705.118 26.3839 710.685 25 717.143 25C723.54 25 729.076 26.3839 733.75 29.1518C738.425 31.8582 742.023 35.7024 744.545 40.6846C747.129 45.6668 748.42 51.5408 748.42 58.3067C748.42 65.1341 747.129 71.0696 744.545 76.1133C742.023 81.0955 738.425 84.9705 733.75 87.7384C729.076 90.5062 723.54 91.8902 717.143 91.8902C710.685 91.8902 705.118 90.5062 700.444 87.7384C695.831 84.9705 692.263 81.0955 689.741 76.1133C687.22 71.0696 685.959 65.1649 685.959 58.3989ZM698.414 58.3989C698.414 65.7184 699.982 71.4387 703.119 75.5597C706.256 79.6808 710.931 81.7413 717.143 81.7413C723.171 81.7413 727.815 79.6808 731.075 75.5597C734.335 71.4387 735.965 65.7184 735.965 58.3989C735.965 51.018 734.335 45.2977 731.075 41.2382C727.876 37.1786 723.233 35.1489 717.143 35.1489C710.931 35.1489 706.256 37.1786 703.119 41.2382C699.982 45.2977 698.414 51.018 698.414 58.3989Z" fill="#1E40AF"/>
<path d="M661.862 90.9673V25.9224H673.763V90.9673H661.862Z" fill="#1E40AF"/>
<path d="M620.054 90.9673V35.7022H598.557V25.9224H653.453V35.7022H631.956V90.9673H620.054Z" fill="#1E40AF"/>
<path d="M563.568 91.8899C554.28 91.8899 547.36 89.5833 542.809 84.9702C538.319 80.2956 536.073 73.4067 536.073 64.3035V25.9224H547.975V64.2112C547.975 69.993 549.205 74.3601 551.666 77.3125C554.188 80.2648 558.155 81.741 563.568 81.741C568.734 81.741 572.609 80.2648 575.193 77.3125C577.838 74.3601 579.16 69.993 579.16 64.2112V25.9224H590.877V64.3035C590.877 73.4067 588.571 80.2956 583.958 84.9702C579.406 89.5833 572.609 91.8899 563.568 91.8899Z" fill="#1E40AF"/>
<path d="M487.428 90.9673V25.9224H499.33V80.9107H529.961V90.9673H487.428Z" fill="#1E40AF"/>
<path d="M412.686 58.3989C412.686 51.5715 413.916 45.6668 416.376 40.6846C418.898 35.7024 422.496 31.8582 427.171 29.1518C431.845 26.3839 437.412 25 443.87 25C450.267 25 455.803 26.3839 460.478 29.1518C465.152 31.8582 468.75 35.7024 471.272 40.6846C473.856 45.6668 475.147 51.5408 475.147 58.3067C475.147 65.1341 473.856 71.0696 471.272 76.1133C468.75 81.0955 465.152 84.9705 460.478 87.7384C455.803 90.5062 450.267 91.8902 443.87 91.8902C437.412 91.8902 431.845 90.5062 427.171 87.7384C422.558 84.9705 418.99 81.0955 416.468 76.1133C413.947 71.0696 412.686 65.1649 412.686 58.3989ZM425.141 58.3989C425.141 65.7184 426.71 71.4387 429.846 75.5597C432.983 79.6808 437.658 81.7413 443.87 81.7413C449.898 81.7413 454.542 79.6808 457.802 75.5597C461.062 71.4387 462.692 65.7184 462.692 58.3989C462.692 51.018 461.062 45.2977 457.802 41.2382C454.604 37.1786 449.96 35.1489 443.87 35.1489C437.658 35.1489 432.983 37.1786 429.846 41.2382C426.71 45.2977 425.141 51.018 425.141 58.3989Z" fill="#1E40AF"/>
<path d="M378.038 91.8902C372.81 91.8902 367.982 91.2443 363.553 89.9526C359.186 88.5995 355.434 86.7542 352.297 84.4169L355.988 75.0984C358.079 76.5746 360.263 77.8355 362.538 78.8812C364.814 79.8653 367.244 80.6342 369.827 81.1877C372.41 81.6798 375.148 81.9258 378.038 81.9258C382.898 81.9258 386.404 81.1262 388.556 79.527C390.709 77.9278 391.786 75.8365 391.786 73.2532C391.786 70.9774 391.047 69.2551 389.571 68.0865C388.095 66.8563 385.45 65.8414 381.637 65.0418L371.211 62.9198C365.245 61.6896 360.785 59.6291 357.833 56.7382C354.881 53.8473 353.404 49.9723 353.404 45.1132C353.404 41.0536 354.481 37.5169 356.634 34.503C358.786 31.4891 361.8 29.1518 365.675 27.4911C369.55 25.8304 374.071 25 379.238 25C383.851 25 388.126 25.6766 392.062 27.0298C395.999 28.3214 399.29 30.1974 401.934 32.6578L398.244 41.515C395.599 39.3007 392.708 37.6707 389.571 36.625C386.434 35.5179 382.928 34.9643 379.053 34.9643C374.686 34.9643 371.273 35.8254 368.812 37.5477C366.413 39.2084 365.214 41.5149 365.214 44.4673C365.214 46.7431 365.952 48.5576 367.428 49.9108C368.966 51.264 371.549 52.3096 375.178 53.0477L385.512 55.0775C391.662 56.3077 396.214 58.3374 399.166 61.1668C402.119 63.9347 403.595 67.6867 403.595 72.4228C403.595 76.2978 402.549 79.7115 400.458 82.6639C398.367 85.5548 395.414 87.8306 391.601 89.4913C387.787 91.0906 383.267 91.8902 378.038 91.8902Z" fill="#1E40AF"/>
<path d="M293.254 91.8902C288.026 91.8902 283.198 91.2443 278.769 89.9526C274.402 88.5995 270.65 86.7542 267.513 84.4169L271.204 75.0984C273.295 76.5746 275.479 77.8355 277.754 78.8812C280.03 79.8653 282.46 80.6342 285.043 81.1877C287.626 81.6798 290.364 81.9258 293.254 81.9258C298.114 81.9258 301.62 81.1262 303.772 79.527C305.925 77.9278 307.001 75.8365 307.001 73.2532C307.001 70.9774 306.263 69.2551 304.787 68.0865C303.311 66.8563 300.666 65.8414 296.853 65.0418L286.427 62.9198C280.461 61.6896 276.001 59.6291 273.049 56.7382C270.097 53.8473 268.62 49.9723 268.62 45.1132C268.62 41.0536 269.697 37.5169 271.85 34.503C274.002 31.4891 277.016 29.1518 280.891 27.4911C284.766 25.8304 289.287 25 294.454 25C299.067 25 303.342 25.6766 307.278 27.0298C311.215 28.3214 314.505 30.1974 317.15 32.6578L313.46 41.515C310.815 39.3007 307.924 37.6707 304.787 36.625C301.65 35.5179 298.144 34.9643 294.269 34.9643C289.902 34.9643 286.489 35.8254 284.028 37.5477C281.629 39.2084 280.43 41.5149 280.43 44.4673C280.43 46.7431 281.168 48.5576 282.644 49.9108C284.182 51.264 286.765 52.3096 290.394 53.0477L300.728 55.0775C306.878 56.3077 311.43 58.3374 314.382 61.1668C317.335 63.9347 318.811 67.6867 318.811 72.4228C318.811 76.2978 317.765 79.7115 315.674 82.6639C313.583 85.5548 310.63 87.8306 306.817 89.4913C303.003 91.0906 298.483 91.8902 293.254 91.8902Z" fill="#1E40AF"/>
<path d="M220.282 90.9673V25.9224H232.184V80.9107H262.815V90.9673H220.282Z" fill="#1E40AF"/>
<path d="M187.384 91.8902C180.618 91.8902 174.806 90.537 169.946 87.8306C165.149 85.0627 161.458 81.1877 158.875 76.2056C156.292 71.1619 155 65.2264 155 58.3989C155 51.5715 156.292 45.6668 158.875 40.6846C161.458 35.7024 165.149 31.8582 169.946 29.1518C174.806 26.3839 180.618 25 187.384 25C191.936 25 196.026 25.6458 199.655 26.9375C203.345 28.2292 206.513 30.1359 209.158 32.6578L205.283 42.0685C202.392 39.7312 199.593 38.0705 196.887 37.0864C194.242 36.0407 191.198 35.5179 187.753 35.5179C181.172 35.5179 176.128 37.5169 172.622 41.515C169.178 45.4515 167.455 51.0795 167.455 58.3989C167.455 65.7184 169.178 71.3772 172.622 75.3752C176.128 79.3732 181.172 81.3723 187.753 81.3723C191.198 81.3723 194.242 80.8802 196.887 79.8961C199.593 78.8504 202.392 77.1282 205.283 74.7294L209.158 84.1401C206.513 86.6005 203.345 88.5072 199.655 89.8604C196.026 91.2136 191.936 91.8902 187.384 91.8902Z" fill="#1E40AF"/>
<path d="M103.176 46.4097C103.67 46.4676 103.67 46.4676 104.174 46.5267C106.413 46.8437 107.644 47.35 109.208 49.0084C109.637 50.3435 109.637 50.3435 109.59 51.6786C108.985 52.7052 108.985 52.7052 108.064 53.5858C106.854 53.7751 106.854 53.7751 105.489 53.7527C103.297 53.8437 101.968 54.053 100.31 55.5095C99.3315 56.6544 98.6135 57.9064 97.9255 59.2421C97.2989 60.1991 96.9332 60.4709 95.8573 60.8335C93.8245 61.1213 92.1942 61.1783 90.4454 60.0467C89.5633 58.6171 89.4298 57.9066 89.754 56.256C91.3058 54.549 92.9261 53.9147 95.0944 53.2044C94.629 52.1781 94.629 52.1781 93.95 51.2971C93.719 49.4856 93.58 47.9839 94.6891 46.4813C97.2774 45.3192 100.442 46.0226 103.176 46.4097Z" fill="#1E40AF"/>
<path d="M79.8362 30.46C81.4161 30.7891 81.9579 31.2929 82.8878 32.6056C83.3746 35.1283 82.4695 36.72 81.2786 38.925C80.3843 40.6488 79.6477 42.4288 78.9301 44.2325C78.2231 45.9245 77.4303 47.0691 76.0216 48.2453C74.6627 48.6505 74.6627 48.6505 73.3515 48.6267C72.4217 48.1022 72.4217 48.1022 71.8257 47.1009C71.3959 44.4066 72.2183 42.4181 73.4468 40.0678C73.7656 39.432 74.0835 38.7958 74.4005 38.1591C74.5514 37.8586 74.7024 37.5581 74.8579 37.2485C75.3427 36.2467 75.7394 35.2255 76.117 34.1791C76.8631 32.2569 77.7137 30.9022 79.8362 30.46Z" fill="#1E40AF"/>
<path d="M43.5981 1.70787C45.2613 2.98339 45.832 4.67411 46.5544 6.5714C46.6748 6.86643 46.7953 7.16146 46.9194 7.46544C47.6893 9.45169 47.9204 11.0239 47.7941 13.1515C47.5423 13.1515 47.2906 13.1515 47.0312 13.1515C46.9053 13.5291 46.7794 13.9068 46.6497 14.2958C45.2107 14.4973 43.8382 14.6605 42.5461 13.9025C40.3538 11.6528 39.16 7.73745 38.9253 4.64923C39.0524 3.27091 39.5967 2.68556 40.5465 1.70787C41.6798 1.14121 42.3906 1.3939 43.5981 1.70787Z" fill="#1E40AF"/>
<path d="M96.2387 81.0505C97.1836 81.6959 97.845 82.2278 98.6228 83.0293C98.9105 83.3055 98.9105 83.3055 99.2039 83.5873C102.241 86.549 102.241 86.549 102.533 88.2981C102.284 89.7898 101.987 90.3791 100.816 91.3498C99.5859 91.7213 98.6197 91.6906 97.3831 91.3498C94.9311 89.8173 92.9342 87.4542 91.6613 84.865C91.387 83.4115 91.4505 82.9101 92.2335 81.6704C93.542 80.8198 94.7374 80.7778 96.2387 81.0505Z" fill="#1E40AF"/>
<path d="M105.012 19.6364C105.649 20.9106 105.701 22.0893 105.394 23.451C104.179 25.5211 102.229 27.2762 99.8909 27.8898C98.1517 28.1707 97.3106 28.2222 95.7858 27.2655C95.0944 26.1211 95.0944 26.1211 95.0467 24.8099C95.8351 22.3133 97.4434 20.9166 99.6718 19.6364C101.251 19.0046 103.494 18.8774 105.012 19.6364Z" fill="#1E40AF"/>
<path d="M8.88578 57.7818C9.57716 58.211 9.57716 58.211 10.0301 58.9262C10.2685 60.1421 10.2685 60.1421 10.0301 61.5964C9.24797 62.7226 8.31391 63.6672 7.35996 64.648C7.09247 65.002 6.82497 65.3561 6.54937 65.7209C5.42323 67.0347 4.48467 67.6313 2.75867 67.8427C1.47324 67.6786 0.948179 67.5519 0.112337 66.5553C-0.116224 65.0411 -0.0256071 64.161 0.660677 62.7884C5.36177 56.5763 5.36177 56.5763 8.88578 57.7818Z" fill="#1E40AF"/>
<path d="M12.3576 26.4085C15.1755 27.3564 15.1755 27.3564 15.8712 28.3917C16.2643 29.5622 16.1179 30.2903 15.752 31.4612C14.941 32.4242 14.3383 32.9105 13.0758 33.1063C10.2966 33.184 7.33872 32.7804 5.07128 31.0798C4.52945 29.9961 4.56985 29.2279 4.68982 28.0282C6.70614 25.5414 9.40827 25.6915 12.3576 26.4085Z" fill="#1E40AF"/>
<path d="M106.03 70.3634C109.464 72.0067 109.464 72.0067 110.353 73.421C110.649 74.946 110.583 76.0721 109.804 77.4263C108.32 78.2953 107.07 78.3096 105.394 77.9985C103.337 77.1852 101.355 75.9894 100.053 74.1839C99.8 73.033 99.8779 72.3408 100.053 71.1323C101.399 69.26 104.1 69.6513 106.03 70.3634Z" fill="#1E40AF"/>
<path d="M22.2366 10.1C23.524 10.8454 24.5859 11.7564 25.6697 12.7701C25.8812 12.957 26.0926 13.1438 26.3104 13.3364C27.4022 14.4343 27.7073 15.35 27.7677 16.8469C27.7535 17.874 27.7 18.3335 27.0659 19.1505C26.4326 19.6363 26.4326 19.6363 25.2644 19.8986C22.9728 19.4984 21.6198 18.1379 19.9479 16.5847C19.7276 16.385 19.5073 16.1854 19.2804 15.9797C18.2787 14.9496 17.9162 14.099 17.8499 12.6986C18.0406 11.2443 18.0406 11.2443 18.4221 10.4814C19.7191 9.83291 20.856 9.76496 22.2366 10.1Z" fill="#1E40AF"/>
<path d="M106.228 33.3194C107.394 34.174 107.674 34.8426 107.897 36.2534C107.672 37.6286 107.581 38.1822 106.538 39.0904C104.251 40.0637 101.743 40.1869 99.2904 39.8533C98.0506 39.0666 98.0506 39.0666 97.3831 37.9461C97.1447 36.611 97.1447 36.611 97.3831 35.2759C99.4832 32.665 103.092 32.0706 106.228 33.3194Z" fill="#1E40AF"/>
<path d="M61.9079 94.9019C63.1968 95.1972 63.7605 95.6366 64.5393 96.7018C65.8512 99.0464 66.4248 101.66 66.1039 104.319C65.484 105.273 65.484 105.273 64.578 105.845C63.2203 106.076 62.5185 105.959 61.288 105.344C59.6259 103.463 58.8127 100.953 58.6417 98.4541C58.8562 97.0714 58.8562 97.0714 59.6668 95.927C60.7635 95.1641 60.7635 95.1641 61.9079 94.9019Z" fill="#1E40AF"/>
<path d="M77.8813 88.0596C80.0296 88.4892 81.2266 89.9007 82.4587 91.6119C83.4555 93.3087 83.7643 95.1495 83.2693 97.0714C82.2855 98.0236 81.8143 98.2055 80.4322 98.4065C78.6535 98.1569 78.2493 97.7339 77.166 96.3085C74.8009 92.3927 74.8009 92.3927 75.2588 90.2052C76.0035 88.8876 76.3871 88.3844 77.8813 88.0596Z" fill="#1E40AF"/>
<path d="M45.5054 105.082C46.3683 105.727 46.6203 106.065 46.8151 107.136C46.8187 109.657 46.533 111.717 45.1239 113.856C44.0094 114.853 43.5144 115 42.0246 115C40.9279 114.619 40.9279 114.619 40.2127 113.832C39.2209 111.242 39.7742 109.123 40.8519 106.665C41.9794 104.645 43.3956 104.44 45.5054 105.082Z" fill="#1E40AF"/>
<path d="M92.8533 7.59668C93.95 7.81125 93.95 7.81125 94.8559 8.40727C95.7291 9.71697 95.6831 10.4527 95.4758 12.0072C94.7718 13.9876 93.7597 15.7175 92.0427 16.9661C90.8708 17.2515 90.2355 17.1637 88.9911 16.9661C88.0136 16.2032 88.0136 16.2032 87.4653 15.0589C87.4653 12.5298 88.1494 11.0243 89.9015 9.15379C90.8576 8.25796 91.5605 7.82938 92.8533 7.59668Z" fill="#1E40AF"/>
<path d="M30.6286 59.3072C31.32 59.7363 31.32 59.7363 31.773 60.4515C32.0431 61.8294 32.0283 62.707 31.2813 63.9204C29.5697 66.0148 27.6878 67.4016 25.0022 67.8899C23.7827 67.6189 23.3381 67.1867 22.6181 66.1733C22.3558 65.1243 22.3558 65.1243 22.6181 63.8846C24.4027 61.2358 27.2097 58.2815 30.6286 59.3072Z" fill="#1E40AF"/>
<path d="M15.8235 75.3286C16.8963 75.7101 16.8963 75.7101 17.6115 76.3299C18.2215 77.6177 18.211 78.4946 18.0407 79.9061C17.0865 81.7411 15.9157 82.9531 14.2261 84.1021C13.0341 84.3405 13.0341 84.3405 11.9374 84.1021C10.7677 83.0863 10.4517 82.4355 10.197 80.9074C10.5535 78.6101 11.7021 77.3793 13.4394 75.9008C14.6076 75.3286 14.6076 75.3286 15.8235 75.3286Z" fill="#1E40AF"/>
<path d="M67.6297 16.203C68.7975 17.1892 69.4332 17.7992 69.9184 19.2546C70.059 21.1532 69.9812 22.3232 68.774 23.8321C67.8043 24.5678 67.3308 24.5984 66.1038 24.5473C64.526 24.0871 63.8699 23.3203 62.9568 21.9963C62.5258 20.7391 62.5113 19.8133 62.6708 18.4917C63.985 16.3029 65.1311 15.5171 67.6297 16.203Z" fill="#1E40AF"/>
<path d="M79.3832 1.18311C80.8663 1.35758 81.4481 1.82392 82.5064 2.85197C83.1283 4.0958 83.0918 5.32279 82.8878 6.66651C82.4299 7.85963 81.8807 8.80668 80.9806 9.71814C79.4229 10.2466 78.7097 10.2819 77.2137 9.59893C76.4031 8.95523 76.4031 8.95523 76.0217 8.19232C75.8082 6.24699 75.8015 4.78879 76.7369 3.04269C78.1813 1.34336 78.1813 1.34336 79.3832 1.18311Z" fill="#1E40AF"/>
<path d="M45.8868 86.7718C47.0285 87.5413 47.6739 88.1107 47.9654 89.4897C48.0663 91.5504 47.6352 92.7996 46.2682 94.4009C44.8588 95.3405 44.1195 95.3125 42.4537 95.1638C41.4558 94.4653 41.3208 94.0539 40.9279 92.8751C40.7769 90.8753 40.9905 89.6161 42.0722 87.9162C43.256 86.6916 44.2126 86.4985 45.8868 86.7718Z" fill="#1E40AF"/>
<path d="M64.5781 0.0033661C65.5923 0.241073 66.1226 0.598394 66.8668 1.32653C67.4284 3.10963 67.396 4.7275 66.7714 6.47616C66.1039 7.4298 66.1039 7.4298 64.9595 8.1927C63.6087 8.3689 62.826 8.26018 61.5741 7.71589C60.4273 6.23178 60.5197 5.01659 60.6071 3.18165C60.7635 2.08944 60.7635 2.08944 61.3357 0.849717C62.4901 0.0416499 63.199 -0.0181819 64.5781 0.0033661Z" fill="#1E40AF"/>
<path d="M23.223 46.9359C24.5007 47.1654 25.1851 47.6772 26.0512 48.6271C26.6408 49.8065 26.5446 50.7611 26.4326 52.0602C25.5863 53.1692 25.0901 53.5249 23.7624 53.9675C22.1604 54.1158 21.3608 54.1426 19.9956 53.2523C18.9559 52.2126 18.8239 51.8943 18.6843 50.4152C18.8035 49.0086 18.8035 49.0086 19.328 47.8881C20.6523 46.8476 21.5737 46.8556 23.223 46.9359Z" fill="#1E40AF"/>
<path d="M113.784 58.7427C115.244 59.0928 115.858 59.6824 116.837 60.8333C117.147 62.1445 117.147 62.1445 116.837 63.5034C115.922 64.7568 114.882 65.5913 113.377 66.0142C111.809 66.1424 111.142 65.8148 109.947 64.8147C109.208 63.5034 109.208 63.5034 109.16 62.1445C109.943 59.754 111.154 58.558 113.784 58.7427Z" fill="#1E40AF"/>
<path d="M26.2732 31.6612C27.1956 31.843 27.1956 31.843 28.3876 32.6059C29.174 33.864 29.4112 34.6 29.3115 36.0628C28.9103 37.484 28.0427 37.9943 26.8141 38.7091C25.1626 38.9699 24.4527 38.9105 23.0473 37.9939C22.0076 36.9543 21.8756 36.6359 21.736 35.1569C21.8552 33.7502 21.8552 33.7502 22.3797 32.6297C23.7009 31.5917 24.6247 31.5687 26.2732 31.6612Z" fill="#1E40AF"/>
<path d="M37.5187 21.7164C38.9399 22.1175 39.4502 22.9851 40.165 24.2137C40.4258 25.8652 40.3664 26.5751 39.4498 27.9805C38.4152 29.0152 38.0814 29.1494 36.6127 29.3156C35.2061 29.1726 35.2061 29.1726 34.0856 28.4335C33.167 27.0695 33.0146 26.2715 33.1171 24.6562C33.6274 22.3429 35.339 21.5677 37.5187 21.7164Z" fill="#1E40AF"/>
<path d="M47.4126 51.6783C48.7001 52.4412 48.7001 52.4412 49.7014 53.5856C50.0116 55.3622 49.9686 56.4831 48.9623 57.9961C47.7103 58.9926 47.5288 59.0671 46.0299 58.9498C44.724 58.7559 44.0291 58.457 43.2167 57.4001C42.7485 55.4964 42.6023 54.7901 43.5266 53.0372C44.7581 51.5946 45.54 51.4622 47.4126 51.6783Z" fill="#1E40AF"/>
<path d="M49.7014 20.3991C50.7312 21.0856 51.4339 21.5754 51.9901 22.6878C52.2185 24.6976 51.7055 25.6954 50.4643 27.2652C49.3759 27.8094 48.6201 27.7651 47.4126 27.6467C46.3827 26.9601 45.6801 26.4704 45.1239 25.358C44.9734 23.7629 44.9521 22.9512 45.8391 21.5911C47.1076 20.3227 47.9259 20.225 49.7014 20.3991Z" fill="#1E40AF"/>
<path d="M40.7133 65.5303C42.4641 65.8681 43.2028 66.3439 44.361 67.6998C44.6686 68.7897 44.6475 69.6584 44.361 70.7514C43.5836 71.9551 43.0384 72.5318 41.6163 72.8405C40.0584 72.9382 39.2806 72.8679 38.0432 71.8719C37.3471 70.4495 37.2473 69.6487 37.4948 68.0812C38.2366 66.5846 39.0384 65.8653 40.7133 65.5303Z" fill="#1E40AF"/>
<path d="M31.0101 79.1431C32.1306 79.9299 32.1306 79.9299 32.9174 81.0504C32.978 82.7184 32.6312 83.732 31.6061 85.008C30.5314 86.1089 30.2648 86.3474 28.7691 86.51C27.577 86.3908 27.577 86.3908 26.6711 85.8186C25.9624 84.7283 25.8132 83.8879 25.8739 82.5896C26.1895 81.2078 26.9549 80.5043 27.9585 79.5246C29.0603 78.9737 29.7881 78.9994 31.0101 79.1431Z" fill="#1E40AF"/>
<path d="M53.8973 40.2348C54.9272 40.9214 55.6299 41.4111 56.1861 42.5235C56.4019 45.1998 56.4019 45.1998 55.6377 46.5288C54.1748 47.3852 52.878 47.4329 51.2272 47.101C50.0607 46.3392 49.4844 45.8216 49.1262 44.4546C49.0516 43.5983 49.0846 42.9697 49.3199 42.1421C50.7067 40.5571 51.7819 39.8297 53.8973 40.2348Z" fill="#1E40AF"/>
<path d="M115.311 37.9461C116.241 38.3752 116.241 38.3752 116.837 39.0905C117.249 40.5714 117.368 41.4063 116.766 42.8335C115.728 44.0861 115.032 44.3691 113.428 44.5739C111.901 44.3869 111.354 44.0782 110.353 42.905C109.934 41.7248 109.79 40.7142 109.971 39.4719C111.542 37.4579 112.911 37.1989 115.311 37.9461Z" fill="#1E40AF"/>
<path d="M55.8046 60.4518C56.9374 61.443 57.2804 62.016 57.4973 63.5034C57.3102 64.7864 56.9556 65.5192 56.186 66.5551C54.8605 67.2178 53.4363 67.16 51.99 66.9365C50.7211 65.9152 50.5029 65.3002 50.2735 63.6942C50.4935 62.154 50.9016 61.5403 51.99 60.4518C53.2406 59.8265 54.5043 60.0792 55.8046 60.4518Z" fill="#1E40AF"/>
<path d="M91.2799 64.2662C92.3977 65.0273 93.0518 65.574 93.357 66.926C93.4333 68.2864 93.305 69.0719 92.4719 70.1549C91.1245 71.1456 90.2895 71.33 88.6097 71.1324C87.2681 70.1486 86.7814 69.4854 86.2971 67.89C86.3261 66.268 86.7006 65.7611 87.8468 64.6477C89.044 64.049 89.9595 64.1319 91.2799 64.2662Z" fill="#1E40AF"/>
<path d="M40.165 43.2864C41.4415 44.237 41.9914 44.7626 42.2868 46.3381C42.0251 47.7338 41.5278 48.3795 40.5464 49.3897C39.3179 50.0039 38.0605 49.997 36.7319 49.7711C35.7217 48.963 35.306 48.3895 35.063 47.1114C34.9814 45.7472 35.0838 44.9712 35.9213 43.8825C37.463 42.7488 38.2908 42.8417 40.165 43.2864Z" fill="#1E40AF"/>
<path d="M6.14111 38.9086C7.56319 39.2173 8.1084 39.794 8.88579 40.9977C9.03621 42.0685 8.97816 42.9592 8.88579 44.0493C8.63403 44.0493 8.38227 44.0493 8.12288 44.0493C7.997 44.4269 7.87112 44.8046 7.74142 45.1937C6.41957 45.8546 4.99073 45.7522 3.54543 45.5751C2.56796 45.0029 2.56796 45.0029 2.01962 44.0493C1.79761 42.301 1.81028 41.4345 2.56796 39.8533C3.806 38.887 4.5987 38.8119 6.14111 38.9086Z" fill="#1E40AF"/>
<path d="M90.3023 26.7407C91.2798 26.8838 91.2798 26.8838 92.3526 27.6467C93.2835 28.9232 93.4798 29.562 93.3689 31.1036C93.0356 32.4587 92.418 32.9911 91.2798 33.7499C89.8 34.0811 88.6156 33.9884 87.2984 33.1778C86.4816 31.8709 86.1894 30.7143 86.3209 29.1725C86.9597 28.0606 87.396 27.4542 88.5858 26.9553C89.1601 26.9031 89.7324 26.8284 90.3023 26.7407Z" fill="#1E40AF"/>
<path d="M70.3475 80.2876C72.2372 80.9449 72.2372 80.9449 72.97 81.8134C73.3171 82.9735 73.4468 84.0384 73.3515 85.2465C72.6782 86.3609 72.2229 86.9551 71.0627 87.5352C70.0137 87.7259 70.0137 87.7259 68.774 87.5352C67.7687 86.784 67.0812 85.9686 66.4853 84.865C66.3895 83.4755 66.4727 82.7093 67.3302 81.5899C68.3216 80.6379 68.9724 80.2876 70.3475 80.2876Z" fill="#1E40AF"/>
<path d="M70.2999 55.4931C71.4009 56.0803 72.0209 56.5353 72.4768 57.7192C72.7098 58.8559 72.7467 59.6976 72.2891 60.7768C71.6625 61.6732 71.004 62.269 69.9407 62.5664C68.4584 62.6704 67.7341 62.4253 66.4615 61.6202C65.5611 60.1969 65.5444 59.4425 65.8342 57.8176C66.5522 55.6912 68.2269 55.1476 70.2999 55.4931Z" fill="#1E40AF"/>
<path d="M80.5991 71.5141C81.5766 72.0862 81.5766 72.0862 82.1249 73.0399C82.3469 74.7882 82.3342 75.6546 81.5766 77.2359C80.3306 78.2083 79.5257 78.2535 77.9766 78.1567C77.166 77.9988 77.166 77.9988 76.2124 77.4028C75.4489 76.1622 75.2842 75.2571 75.2587 73.8028C76.4141 71.2719 78.0192 71.1979 80.5991 71.5141Z" fill="#1E40AF"/>
<path d="M74.4958 107.371C75.7853 107.824 75.9958 108.095 76.7846 109.278C77.0401 110.891 77.0452 112.266 76.2124 113.689C74.874 114.458 73.6889 114.566 72.2071 114.237C71.0628 113.498 71.0628 113.498 70.2999 112.33C69.9659 110.669 70.0072 109.377 70.8959 107.919C72.1704 107.167 73.0387 107.215 74.4958 107.371Z" fill="#1E40AF"/>
<path d="M59.9768 73.9458C61.5024 74.2572 62.5623 74.8007 63.4337 76.0915C63.7372 77.3012 63.7296 78.3139 63.4337 79.5246C62.6223 80.5641 62.0655 80.9394 60.7739 81.2053C59.3733 81.3101 58.6186 81.1654 57.5212 80.2875C56.7903 78.8258 56.5775 77.6937 56.949 76.0915C57.8698 74.7915 58.4134 74.2784 59.9768 73.9458Z" fill="#1E40AF"/>
<path d="M58.0933 29.554C60.2116 30.8093 60.2116 30.8093 60.5787 32.2137C60.644 33.461 60.4572 34.3761 59.8575 35.4665C58.2928 36.3606 56.7935 36.4193 55.0417 36.0387C54.0165 35.0612 54.0165 35.0612 53.5158 33.75C53.4875 32.1045 53.6275 31.3804 54.7317 30.15C56.0282 29.4297 56.6327 29.2857 58.0933 29.554Z" fill="#1E40AF"/>
<path d="M50.8457 73.8026C51.9662 74.3509 51.9662 74.3509 52.753 75.3284C53.0511 76.5389 53.0539 77.5513 52.753 78.7615C52.0808 79.81 51.616 80.0405 50.4642 80.6688C48.9559 80.6948 48.1312 80.5034 46.8643 79.6913C46.17 78.6082 46.0264 77.7465 46.0984 76.4623C46.6607 73.9713 48.5786 73.4382 50.8457 73.8026Z" fill="#1E40AF"/>
<path d="M82.1249 49.3894C83.892 50.2533 83.892 50.2533 84.4137 51.2967C84.5552 52.7969 84.5322 53.7245 83.8653 55.0874C82.6198 56.0899 81.8301 56.1288 80.2653 56.0336C79.4548 55.8741 79.4548 55.8741 78.5011 55.2543C77.7919 54.1314 77.5746 53.3898 77.5475 52.0596C78.5494 49.8555 79.7212 49.1491 82.1249 49.3894Z" fill="#1E40AF"/>
<path d="M68.774 67.6995C69.8946 68.2479 69.8946 68.2479 70.6813 69.2253C70.9793 70.4355 70.9842 71.4489 70.6813 72.6584C70.0034 73.6835 69.5182 73.9404 68.3926 74.5657C66.8498 74.6287 66.2467 74.2898 65.0072 73.3737C64.1966 72.277 64.1966 72.277 63.9582 70.9419C64.4498 68.1887 66.0895 67.2681 68.774 67.6995Z" fill="#1E40AF"/>
<path d="M65.5317 38.0889C67.1173 38.372 67.7593 38.5924 68.7741 39.8531C69.1154 41.485 69.0445 42.804 68.2257 44.2637C66.7675 45.0817 65.4455 45.156 63.8152 44.812C62.6582 43.8526 62.3556 43.2507 62.0748 41.7842C62.4601 39.6861 63.407 38.4683 65.5317 38.0889Z" fill="#1E40AF"/>
<path d="M88.6335 37.7478C89.947 38.1 90.5201 38.7611 91.2798 39.8532C91.5639 41.3681 91.422 41.9287 90.5646 43.2148C89.6128 44.1946 89.2651 44.3941 87.9183 44.5737C86.7024 44.4307 86.7024 44.4307 85.6295 43.6201C84.6873 42.3818 84.3501 41.7911 84.4136 40.2347C85.5127 38.3202 86.3853 37.5647 88.6335 37.7478Z" fill="#1E40AF"/>
<path d="M81.7435 60.0706C82.6971 60.6428 82.6971 60.6428 83.2693 61.5965C83.5401 63.4922 83.5711 64.2091 82.4825 65.7925C81.0652 66.7574 80.3747 66.8559 78.6918 66.5554C77.2835 65.5666 76.8498 65.0137 76.5461 63.313C76.7846 61.9779 76.7846 61.9779 77.5475 60.8574C79.1308 59.7688 79.8477 59.7998 81.7435 60.0706Z" fill="#1E40AF"/>
<path d="M44.3118 33.5935C45.1239 33.75 45.1239 33.75 46.1014 34.3222C46.878 35.6729 46.9527 36.8062 46.6497 38.3275C45.8349 39.5985 45.264 39.8125 43.8126 40.2347C42.4537 40.2347 42.4537 40.2347 41.357 39.5433C40.41 38.5685 40.1952 38.2184 40.0458 36.8732C40.3148 34.1286 41.7723 33.4304 44.3118 33.5935Z" fill="#1E40AF"/>
<path d="M69.1316 27.0034C70.7564 27.3682 71.493 27.9209 72.5885 29.1729C72.894 30.3414 72.786 30.9808 72.5885 32.2246C72.0164 33.1782 72.0164 33.1782 71.0627 33.7504C69.5284 34.0522 68.409 34.0055 67.0813 33.1544C66.2692 31.8874 66.0778 31.0627 66.1038 29.5544C66.7713 28.1552 67.59 27.3642 69.1316 27.0034Z" fill="#1E40AF"/>
<path d="M77.5475 15.4404C78.8394 16.3749 79.3735 16.9143 79.6693 18.492C79.4076 19.8878 78.9103 20.5334 77.9289 21.5436C76.8453 22.0854 76.0771 22.045 74.8773 21.9251C73.9071 21.2957 73.4823 20.7812 73.1071 19.6855C72.9377 18.8559 72.875 18.1896 72.97 17.3476C74.2215 15.4704 75.3385 15.0459 77.5475 15.4404Z" fill="#1E40AF"/>
<path d="M62.2894 49.0084C63.243 49.6044 63.243 49.6044 63.8152 50.5342C63.9844 52.1138 64.0214 53.4218 63.0523 54.7302C62.0314 55.5242 61.4816 55.4915 60.1675 55.4454C58.8563 55.1117 58.8563 55.1117 58.1172 54.5156C57.5294 53.1672 57.4541 51.9805 57.7119 50.5342C58.7942 48.7304 60.3546 48.6238 62.2894 49.0084Z" fill="#1E40AF"/>
<path d="M56.6018 12.982C57.3304 13.1518 57.3304 13.1518 58.3079 13.9386C59.0334 15.4212 58.9595 16.1612 58.4748 17.7293C57.6404 18.6829 57.6404 18.6829 56.5675 19.2551C55.1963 19.2551 54.5018 19.0262 53.3728 18.2538C52.5041 16.9841 52.5378 16.1841 52.753 14.6776C53.7282 13.0928 54.8409 12.8832 56.6018 12.982Z" fill="#1E40AF"/>
<path d="M82.5064 23.0696C83.2455 23.4988 83.2455 23.4988 83.6507 24.214C83.8498 25.7494 83.7854 26.6204 83.0786 28.0047C82.0722 28.8349 81.8177 28.9295 80.5753 28.9822C79.0733 28.7914 79.0733 28.7914 78.4192 28.3131C77.6374 27.2509 77.7244 26.322 77.7725 25.041C77.9289 24.214 77.9289 24.214 78.7157 23.2127C80.1751 22.5295 80.9677 22.6422 82.5064 23.0696Z" fill="#1E40AF"/>
<path d="M22.9996 94.7828C24.3333 94.6616 25.0584 94.6316 26.1942 95.3788C27.0428 96.6517 27.0049 97.4793 26.8141 98.9788C26.4326 99.7179 26.4326 99.7179 25.6697 100.123C24.6173 100.299 23.6687 100.318 22.6181 100.123C21.8552 99.5033 21.8552 99.5033 21.4737 98.5974C21.4022 97.3576 21.4022 97.3576 21.4737 96.3086C21.7255 96.3086 21.9773 96.3086 22.2367 96.3086C22.4884 95.8051 22.7402 95.3016 22.9996 94.7828Z" fill="#1E40AF"/>
<path d="M88.6096 64.6479C88.3579 65.2773 88.1061 65.9067 87.8467 66.5552C87.595 66.5552 87.3432 66.5552 87.0838 66.5552C87.1912 67.0567 87.3033 67.5572 87.4176 68.0572C87.4795 68.336 87.5415 68.6148 87.6053 68.9021C87.7817 69.6858 87.7817 69.6858 88.6096 69.9883C89.1972 70.0148 89.7858 70.0205 90.3738 70.0121C90.6856 70.0087 90.9973 70.0053 91.3185 70.0017C91.5575 69.9973 91.7965 69.9929 92.0427 69.9883C91.2515 70.8684 91.0136 71.1126 89.8017 71.3234C88.1812 71.0641 87.6746 70.531 86.7024 69.2254C86.2971 67.8903 86.2971 67.8903 86.3209 66.5552C87.4977 64.6479 87.4977 64.6479 88.6096 64.6479Z" fill="#1E40AF"/>
<path d="M36.8034 21.8776C37.5233 21.9012 37.5233 21.9012 38.2577 21.9253C38.2577 22.177 38.2577 22.4288 38.2577 22.6882C37.6441 22.7354 37.6441 22.7354 37.018 22.7835C35.4598 23.0952 35.073 23.4344 34.0617 24.5955C33.81 24.5955 33.5582 24.5955 33.2988 24.5955C33.9682 22.6389 34.6705 21.8077 36.8034 21.8776Z" fill="#1E40AF"/>
<path d="M80.9806 31.0796C82.4587 31.7471 82.4587 31.7471 82.8879 32.6054C83.0684 35.4482 83.0684 35.4482 82.3097 36.3261C82.1229 36.4829 81.936 36.6398 81.7435 36.8014C81.7568 36.4695 81.7568 36.4695 81.7703 36.1309C81.8131 34.2784 81.6959 32.8231 80.9806 31.0796Z" fill="#1E40AF"/>
<path d="M23.3811 31.8428C23.6328 31.9687 23.8846 32.0945 24.144 32.2242C24.0338 32.4209 23.9237 32.6176 23.8102 32.8202C23.2713 33.9879 22.952 35.1803 22.6181 36.4202C22.3664 36.4202 22.1146 36.4202 21.8552 36.4202C21.7282 34.801 21.6878 33.9959 22.6181 32.6295C22.8699 32.3699 23.1217 32.1103 23.3811 31.8428Z" fill="#1E40AF"/>
<path d="M45.1239 3.99658C45.8539 5.09165 46.2546 6.0313 46.6974 7.26278C46.8321 7.63304 46.9668 8.00331 47.1056 8.38479C47.4126 9.33694 47.4126 9.33694 47.4126 10.0998C47.0349 9.97397 46.6573 9.84809 46.2682 9.71839C45.9061 8.91376 45.9061 8.91376 45.6245 7.90648C45.5286 7.57802 45.4327 7.24955 45.334 6.91113C45.1248 5.90836 45.0853 5.01753 45.1239 3.99658Z" fill="#1E40AF"/>
<path d="M14.6076 75.3286C15.7405 75.5174 15.7405 75.5174 16.8963 75.7101C16.6445 76.2136 16.3928 76.7171 16.1334 77.2359C15.2522 77.2359 14.3711 77.2359 13.4632 77.2359C13.652 76.992 13.8408 76.7481 14.0354 76.4968C14.645 75.8208 14.645 75.8208 14.6076 75.3286Z" fill="#1E40AF"/>
<path d="M63.8151 22.3066C64.3816 22.6843 64.3816 22.6843 64.9595 23.0695C65.7412 23.2417 65.7412 23.2417 66.5568 23.308C67.0367 23.3552 67.5167 23.4024 68.0111 23.451C68.0111 23.7028 68.0111 23.9545 68.0111 24.2139C66.6409 24.5644 65.943 24.6913 64.6257 24.1185C64.3582 23.8983 64.0907 23.678 63.8151 23.451C63.8151 23.0734 63.8151 22.6957 63.8151 22.3066Z" fill="#1E40AF"/>
<path d="M56.5675 13.1519C57.7733 13.6744 58.0905 13.9106 58.8562 15.0591C58.9039 16.0843 58.9039 16.0843 58.8562 16.9664C58.4786 17.1552 58.4786 17.1552 58.0933 17.3478C57.9674 16.7184 57.8416 16.0891 57.7119 15.4406C57.4601 15.4406 57.2083 15.4406 56.949 15.4406C56.8231 14.6853 56.6972 13.93 56.5675 13.1519Z" fill="#1E40AF"/>
<path d="M26.4327 96.3086C26.5585 96.3086 26.6844 96.3086 26.8141 96.3086C26.9541 98.7815 26.9541 98.7815 26.2896 99.7178C25.6698 100.123 25.6698 100.123 24.9068 100.123C24.781 99.7455 24.6551 99.3679 24.5254 98.9788C25.0289 98.8529 25.5324 98.727 26.0512 98.5973C26.1771 97.842 26.303 97.0868 26.4327 96.3086Z" fill="#1E40AF"/>
<path d="M88.6096 64.6479C88.3579 65.2773 88.1061 65.9067 87.8467 66.5552C87.595 66.5552 87.3432 66.5552 87.0838 66.5552C87.0838 67.3105 87.0838 68.0658 87.0838 68.8439C86.8321 68.7181 86.5803 68.5922 86.3209 68.4625C86.554 65.9924 86.554 65.9924 87.2507 65.0532C87.8467 64.6479 87.8467 64.6479 88.6096 64.6479Z" fill="#1E40AF"/>
<path d="M23.7625 62.3594C24.1401 62.4853 24.5178 62.6111 24.9069 62.7408C24.7259 62.8746 24.545 63.0083 24.3585 63.1461C23.5036 64.2062 23.5065 65.2258 23.381 66.5554C23.1293 66.4295 22.8775 66.3036 22.6181 66.1739C22.4773 64.1082 22.4773 64.1082 23.1903 62.9792C23.3791 62.7747 23.568 62.5701 23.7625 62.3594Z" fill="#1E40AF"/>
<path d="M21.4738 10.1C20.7109 10.8629 20.7109 10.8629 19.948 11.1729C18.9262 11.7796 18.7718 12.4259 18.4221 13.5331C18.2963 13.5331 18.1704 13.5331 18.0407 13.5331C17.9034 11.4733 17.9034 11.4733 18.4698 10.5292C19.4827 9.92143 20.3172 10.0229 21.4738 10.1Z" fill="#1E40AF"/>
<path d="M61.145 74.184C61.145 74.4357 61.145 74.6875 61.145 74.9469C60.728 75.057 60.311 75.1671 59.8814 75.2806C58.4595 75.6407 58.4595 75.6407 57.3304 76.4727C58.157 74.1702 58.7475 74.1318 61.145 74.184Z" fill="#1E40AF"/>
<path d="M114.549 59.3076C115.49 59.747 116.093 60.0888 116.837 60.8334C116.885 62.2162 116.885 62.2162 116.837 63.5036C116.711 63.5036 116.585 63.5036 116.456 63.5036C116.456 62.7483 116.456 61.9931 116.456 61.2149C116.204 61.2149 115.952 61.2149 115.693 61.2149C115.693 60.9631 115.693 60.7114 115.693 60.452C115.315 60.3261 114.938 60.2002 114.549 60.0705C114.549 59.8188 114.549 59.567 114.549 59.3076Z" fill="#1E40AF"/>
<path d="M10.793 31.4615C10.6671 31.8392 10.5413 32.2168 10.4116 32.6059C9.53041 32.6059 8.64925 32.6059 7.74139 32.6059C7.74139 32.3541 7.74139 32.1024 7.74139 31.843C8.77467 31.3264 9.65222 31.4367 10.793 31.4615Z" fill="#1E40AF"/>
<path d="M64.9595 68.8438C65.4018 70.1705 65.2296 70.9261 64.9595 72.2768C64.7077 72.2768 64.456 72.2768 64.1966 72.2768C64.1489 70.9894 64.1489 70.9894 64.1966 69.6067C64.4483 69.3549 64.7001 69.1031 64.9595 68.8438Z" fill="#1E40AF"/>
<path d="M84.4136 40.2349C84.6654 40.2349 84.9172 40.2349 85.1765 40.2349C85.1765 40.8643 85.1765 41.4937 85.1765 42.1421C85.4283 42.1421 85.6801 42.1421 85.9395 42.1421C86.0653 42.5198 86.1912 42.8974 86.3209 43.2865C85.9433 43.2865 85.5656 43.2865 85.1765 43.2865C84.5034 42.1085 84.4136 41.6718 84.4136 40.2349Z" fill="#1E40AF"/>
<path d="M116.074 39.853C116.452 39.9789 116.83 40.1048 117.219 40.2345C117.076 41.355 117.076 41.355 116.837 42.5232C116.46 42.712 116.46 42.712 116.074 42.9047C116.074 41.8976 116.074 40.8906 116.074 39.853Z" fill="#1E40AF"/>
<path d="M81.362 72.2769C82.1249 73.4212 82.1249 73.4212 82.0325 74.2005C81.809 74.958 81.5855 75.7154 81.362 76.4728C81.2361 76.4728 81.1102 76.4728 80.9805 76.4728C80.9702 75.9166 80.9629 75.3603 80.9567 74.804C80.9523 74.4942 80.9479 74.1844 80.9433 73.8653C80.9805 73.0398 80.9805 73.0398 81.362 72.2769Z" fill="#1E40AF"/>
</svg>
