<svg width="240" height="70" viewBox="0 0 240 70" fill="none" xmlns="http://www.w3.org/2000/svg">
<g clip-path="url(#clip0_9_2379)">
<path d="M103.01 10.8047C103.417 8.30448 101.71 5.9496 99.1972 5.54492C96.6847 5.14024 94.3183 6.83899 93.9116 9.33919C93.505 11.8394 95.212 14.1943 97.7245 14.599C100.237 15.0036 102.603 13.3049 103.01 10.8047Z" fill="#EA6162"/>
<path d="M95.6241 17.7236H101.298C101.818 17.7236 102.24 18.0752 102.24 18.509V51.4907C102.24 51.9245 101.818 52.2761 101.298 52.2761H95.6241C95.1039 52.2761 94.6821 51.9245 94.6821 51.4907V18.509C94.6821 18.0752 95.1039 17.7236 95.6241 17.7236Z" fill="#131B39"/>
<path d="M127.799 52.2759H121.401C120.881 52.2759 120.459 51.8562 120.459 51.3385V35.6556C120.459 32.7386 119.39 31.442 117.203 31.442C114.551 31.442 112.877 33.5718 112.877 37.276V51.3385C112.877 51.8562 112.455 52.2759 111.935 52.2759H105.537C105.016 52.2759 104.595 51.8562 104.595 51.3385V26.824C104.595 26.3063 105.016 25.8865 105.537 25.8865H111.935C112.455 25.8865 112.877 26.3063 112.877 26.824V30.0994C113.806 27.1832 116.412 25.2383 120.18 25.2383C125.671 25.2383 128.741 28.6179 128.741 35.4239V51.3385C128.741 51.8562 128.319 52.2759 127.799 52.2759Z" fill="#131B39"/>
<path d="M131.096 28.1659V22.2527C131.096 21.7863 131.518 21.4082 132.038 21.4082H138.436C138.956 21.4082 139.378 21.7863 139.378 22.2527V28.1659H145.321C145.841 28.1659 146.263 28.544 146.263 29.0104V32.8693C146.263 33.3357 145.841 33.7138 145.321 33.7138H139.378V43.3914C139.378 46.1024 140.355 46.728 143.564 46.728H145.321C145.841 46.728 146.263 47.1062 146.263 47.5726V51.355C146.263 51.8053 145.877 52.1783 145.375 52.1989C144.13 52.2501 142.37 52.276 141.239 52.276C133.795 52.276 131.096 50.1484 131.096 44.3923V33.7138" fill="#131B39"/>
<path d="M148.618 28.3097V25.9134C148.618 20.6994 151.456 18.3867 158.527 18.3867C159.903 18.3867 163.686 18.4134 164.884 18.5316C165.366 18.5792 165.73 18.9425 165.73 19.3809V23.1278C165.73 23.598 165.308 23.9792 164.788 23.9792H160.109C157.644 23.9792 156.852 24.7359 156.852 26.544V28.3097H162.471C162.991 28.3097 163.413 28.6908 163.413 29.161V33.0508C163.413 33.521 162.991 33.9021 162.471 33.9021H156.852V51.4251C156.852 51.8952 156.431 52.2764 155.911 52.2764H149.56C149.039 52.2764 148.618 51.8952 148.618 51.4251V33.9021" fill="#131B39"/>
<path d="M168.085 51.4165V19.2466C168.085 18.7717 168.507 18.3867 169.027 18.3867H175.378C175.898 18.3867 176.32 18.7717 176.32 19.2466V51.4165C176.32 51.8914 175.898 52.2764 175.378 52.2764H169.027C168.507 52.2764 168.085 51.8914 168.085 51.4165Z" fill="#131B39"/>
<path d="M225.718 26.6075L229.712 43.341L233.301 26.6283C233.393 26.1958 233.777 25.8867 234.222 25.8867H239.058C239.674 25.8867 240.124 26.4662 239.969 27.0599L233.568 51.5745C233.46 51.9876 233.085 52.276 232.656 52.276H227.581C227.144 52.276 226.764 51.9762 226.664 51.5522L222.971 35.8407L219.242 51.5541C219.142 51.9772 218.763 52.276 218.326 52.276H213.25C212.821 52.276 212.446 51.987 212.338 51.5733L205.971 27.0587C205.817 26.4653 206.267 25.8867 206.883 25.8867H211.721C212.165 25.8867 212.549 26.1958 212.642 26.6282L216.232 43.341L220.188 26.6095C220.288 26.186 220.668 25.8867 221.105 25.8867H224.802C225.238 25.8867 225.618 26.185 225.718 26.6075Z" fill="#131B39"/>
<path d="M178.675 36.8421H185.838C185.838 32.1274 187.57 30.4059 191.376 30.3968V23.001C182.616 23.0208 178.675 28.4778 178.675 36.8421Z" fill="#EA6162"/>
<path d="M191.376 52.2747V44.8789C187.57 44.8698 185.838 43.1491 185.838 38.4336H178.675C178.675 46.7979 182.616 52.2549 191.376 52.2747Z" fill="#131B39"/>
<path d="M193.285 23.001C193.27 23.001 193.255 23.0028 193.239 23.0028V30.3986C193.249 30.3986 193.257 30.3969 193.268 30.3969C197.038 30.3969 198.778 32.1166 198.778 36.8439H205.94C205.94 28.4644 202.033 23.001 193.285 23.001Z" fill="#131B39"/>
<path d="M198.778 38.4355C198.778 43.1635 197.038 44.8826 193.268 44.8826C193.257 44.8826 193.249 44.8809 193.239 44.8809V52.2767C193.255 52.2767 193.27 52.2785 193.285 52.2785C202.033 52.2785 205.94 46.8151 205.94 38.4355H198.778Z" fill="#EA6162"/>
<path d="M63.0821 33.9854C62.858 33.9854 62.6974 33.9343 62.606 33.8903C62.4529 32.808 61.4082 32.0226 60.0604 32.0226C58.6211 32.0226 57.4953 32.9844 57.4953 34.2098V37.2869C57.4157 37.3235 57.2818 37.3661 57.0976 37.3661C56.9152 37.3661 56.7813 37.3235 56.703 37.2869V31.2731C56.703 30.0462 55.5759 29.0846 54.135 29.0846C52.6972 29.0846 51.5717 30.0462 51.5717 31.2731V41.4327C51.4924 41.4711 51.3594 41.5119 51.1752 41.5119C50.9913 41.5119 50.8571 41.4711 50.7775 41.4327V34.2098C50.7775 32.9844 49.652 32.0226 48.2126 32.0226C46.7751 32.0226 45.6466 32.9844 45.6466 34.2098V38.8702C45.5697 38.9085 45.4358 38.9509 45.2516 38.9509C45.0674 38.9509 44.9335 38.9085 44.8551 38.8702V28.283C44.8551 27.0571 43.7269 26.0955 42.289 26.0955C40.8494 26.0955 39.7242 27.0571 39.7242 28.283V51.0574C39.6446 51.0955 39.5107 51.1381 39.328 51.1381C39.1435 51.1381 39.0108 51.0955 38.9315 51.0574V20.7312C38.9315 19.5043 37.806 18.5439 36.3666 18.5439C34.9273 18.5439 33.8006 19.5043 33.8006 20.7312V41.7937C33.7207 41.8329 33.5883 41.8756 33.4041 41.8756C33.2202 41.8756 33.0872 41.8329 33.0079 41.7949V31.2731C33.0079 30.0462 31.8809 29.0846 30.4431 29.0846C29.0034 29.0846 27.8764 30.0462 27.8764 31.2731V33.8929C27.7823 33.9371 27.6231 33.9854 15.6372 33.9854V36.3151H27.4199C28.8755 36.3151 30.0158 35.3547 30.0158 34.1294V31.5023C30.1012 31.4627 30.2426 31.4171 30.4431 31.4171C30.63 31.4171 30.779 31.4597 30.8685 31.5023V42.0193C30.8685 43.2449 31.9822 44.2053 33.4041 44.2053C34.8257 44.2053 35.9379 43.2449 35.9379 42.0193V20.9613C36.0293 20.919 36.1782 20.8734 36.3666 20.8734C36.5551 20.8734 36.7025 20.919 36.7924 20.9613V51.2804C36.7924 52.5075 37.9046 53.4676 39.328 53.4676C40.7481 53.4676 41.8618 52.5075 41.8618 51.2804V28.5146C41.9517 28.4702 42.1006 28.4264 42.289 28.4264C42.4775 28.4264 42.6249 28.4702 42.7163 28.5146V39.0949C42.7163 40.3214 43.83 41.2818 45.2516 41.2818C46.6732 41.2818 47.7869 40.3214 47.7869 39.0949V34.4402C47.8768 34.3976 48.0242 34.3538 48.2126 34.3538C48.4014 34.3538 48.55 34.3976 48.6402 34.4402V41.6572C48.6402 42.8828 49.7539 43.8444 51.1752 43.8444C52.5971 43.8444 53.7093 42.8828 53.7093 41.6572V31.5023C53.7988 31.4597 53.9478 31.4171 54.135 31.4171C54.3253 31.4171 54.4736 31.4597 54.5637 31.5035V37.5098C54.5637 38.7355 55.676 39.6971 57.0976 39.6971C58.521 39.6971 59.6347 38.7355 59.6347 37.5098V34.4402C59.7228 34.3976 59.8717 34.3538 60.0604 34.3538C60.2697 34.3538 60.4199 34.4018 60.5054 34.4429C60.6586 35.5263 61.7144 36.3151 63.0821 36.3151H68.6942V33.9854H63.0821Z" fill="#EA6162"/>
<path d="M75.1852 46.6608L74.8448 45.157H69.3184C68.2982 45.157 67.4682 46.0382 67.4682 47.1211C67.4682 48.2041 68.2982 49.0853 69.3184 49.0853H71.7714C71.7731 49.1488 71.7739 49.2127 71.7739 49.2765C71.7739 54.0892 67.2643 58.0044 61.7211 58.0044C60.3092 58.0044 58.9369 57.7498 57.6422 57.2479C56.6714 56.8715 55.7672 56.3532 54.9551 55.708L54.7758 55.5659C54.6773 55.4876 54.5833 55.4131 54.4968 55.3343C54.1146 54.9931 53.6294 54.8329 53.132 54.8799C52.6263 54.929 52.1732 55.1872 51.8557 55.607C51.2328 56.4312 51.3446 57.6552 52.1054 58.3359C52.2859 58.4969 52.4625 58.6379 52.6313 58.7709L52.8913 58.9747H52.8921C53.4451 59.4022 54.0331 59.7895 54.6477 60.1309C52.8358 63.6539 47.8645 66.0735 42.3129 66.0735C36.7654 66.0735 31.7952 63.6555 29.9794 60.1351C30.8992 59.6307 31.7529 59.0266 32.5236 58.3342C33.2942 57.6399 33.4027 56.442 32.7714 55.607C32.4542 55.1872 32.0009 54.929 31.4954 54.8799C30.9968 54.8329 30.5131 54.9931 30.1292 55.3351C29.2259 56.1461 28.168 56.7896 26.9852 57.2479C25.6902 57.7498 24.3179 58.0044 22.906 58.0044C17.3628 58.0044 12.8532 54.0892 12.8532 49.2765C12.8532 49.151 12.8566 49.0253 12.863 48.9001C13.475 48.9203 14.1061 48.8909 14.7421 48.8159C15.7509 48.6952 16.4832 47.7258 16.3747 46.6548C16.3197 46.1137 16.0533 45.6162 15.6435 45.2905C15.2644 44.9894 14.7945 44.8555 14.3256 44.9119C13.4669 45.014 12.6649 45.0049 11.6444 44.8283C7.70725 44.146 4.66253 41.0736 3.89368 37.0876H8.96283V41.4996H12.366V29.2432H8.96283V33.1613H2.17823C2.11853 33.1613 2.05882 33.1649 1.99997 33.171C0.899116 33.0783 0 33.9944 0 35.1271C0 38.4113 1.13154 41.593 3.18647 44.0871C4.78862 46.0304 6.85973 47.4576 9.1989 48.2357C9.16599 48.5881 9.14925 48.9364 9.14925 49.2765C9.14925 56.2549 15.3205 61.9324 22.906 61.9324C24.117 61.9324 25.3175 61.7872 26.4816 61.4998C28.7857 66.6046 35.0674 69.9998 42.3129 69.9998C49.5586 69.9998 55.8409 66.6043 58.1458 61.5001C59.3083 61.7872 60.5086 61.9324 61.7211 61.9324C69.3067 61.9324 75.4778 56.2549 75.4778 49.2765C75.4778 48.3948 75.3794 47.5145 75.1852 46.6608Z" fill="#131B39"/>
<path d="M29.6757 11.0232C29.1164 10.5926 28.5275 10.2056 27.9182 9.86803C29.7335 6.34596 34.7054 3.92626 40.2542 3.92626C45.801 3.92626 50.7715 6.34403 52.5873 9.86331C51.6659 10.3697 50.8128 10.9743 50.047 11.6636C49.2843 12.3441 49.1716 13.5678 49.7948 14.3901C50.1474 14.8584 50.6755 15.1269 51.2433 15.1269C51.6818 15.1269 52.1067 14.962 52.4395 14.6624C53.3375 13.8548 54.3943 13.2119 55.5802 12.7516L55.7107 12.7003C56.9628 12.2336 58.2904 11.9971 59.659 11.9971C65.2039 11.9971 69.7152 15.9114 69.7152 20.723C69.7152 20.8474 69.7119 20.9732 69.7049 21.0997C69.0744 21.0784 68.4534 21.1097 67.8266 21.1839C66.8178 21.3046 66.0852 22.2737 66.1937 23.3443C66.2484 23.8856 66.5148 24.3825 66.9244 24.7082C67.3035 25.0097 67.773 25.1437 68.2381 25.0865C69.1344 24.9847 69.9155 24.9963 70.9226 25.1712L70.9594 25.1773C74.922 25.8802 78.0318 29.115 78.7166 33.1615H75.4777V29.2433H72.0745V41.4998H75.4777V37.0878H80.1383C80.4926 37.0878 80.8315 36.9837 81.1272 36.7849C81.958 36.5831 82.567 35.7869 82.567 34.8708C82.567 31.5838 81.4352 28.4023 79.3803 25.9127C77.7787 23.9695 75.7079 22.5425 73.3687 21.7644C73.4011 21.4182 73.4175 21.0695 73.4175 20.723C73.4175 13.7447 67.2455 8.06742 59.659 8.06742C58.4486 8.06742 57.2495 8.21263 56.0871 8.49969C53.7828 3.39545 47.5005 0 40.2542 0C33.0067 0 26.7251 3.39523 24.423 8.49969C23.2602 8.21263 22.0597 8.06742 20.8473 8.06742C13.2609 8.06742 7.08887 13.7447 7.08887 20.723C7.08887 21.6081 7.18822 22.4887 7.38374 23.3398L7.72631 24.8409H13.2467C14.2677 24.8409 15.0985 23.9597 15.0985 22.8767C15.0985 21.7938 14.2677 20.9129 13.2467 20.9129H10.7962C10.7482 18.8733 11.5137 16.8961 12.9822 15.2965C14.9071 13.1997 17.7739 11.9971 20.8473 11.9971C22.2684 11.9971 23.6404 12.2508 24.926 12.7516C25.8959 13.1283 26.8004 13.6466 27.6181 14.2951L27.7609 14.407C27.871 14.4947 27.9757 14.5775 28.0703 14.6641C28.4047 14.9625 28.8291 15.1269 29.2648 15.1269C29.8339 15.1269 30.3615 14.8579 30.7108 14.3912C31.3345 13.5664 31.2226 12.343 30.4638 11.6661C30.3235 11.5396 30.1849 11.4263 30.0507 11.3183" fill="#131B39"/>
</g>
<defs>
<clipPath id="clip0_9_2379">
<rect width="240" height="70" fill="white"/>
</clipPath>
</defs>
</svg>
